<?xml version="1.0" standalone="no"?>
<!DOCTYPE svg PUBLIC "-//W3C//DTD SVG 1.1//EN" "http://www.w3.org/Graphics/SVG/1.1/DTD/svg11.dtd" >
<svg xmlns="http://www.w3.org/2000/svg" xmlns:xlink="http://www.w3.org/1999/xlink" version="1.1">
<metadata></metadata>
<defs>
<font id="libel_suitsemibold" horiz-adv-x="796" >
<font-face units-per-em="2048" ascent="1616" descent="-432" />
<missing-glyph horiz-adv-x="380" />
<glyph horiz-adv-x="0" />
<glyph horiz-adv-x="682" />
<glyph horiz-adv-x="380" />
<glyph unicode=" "  horiz-adv-x="380" />
<glyph unicode="&#x09;" horiz-adv-x="380" />
<glyph unicode="&#xa0;" horiz-adv-x="380" />
<glyph unicode="!" horiz-adv-x="395" d="M72 1632h252l-68 -1186h-117zM78 121q0 55 30.5 90t88.5 35q60 0 90 -34.5t30 -90.5q0 -58 -30 -93.5t-90 -35.5q-58 0 -88.5 36t-30.5 93z" />
<glyph unicode="&#x22;" horiz-adv-x="589" d="M51 1632h195l-29 -522h-137zM344 1632h195l-29 -522h-137z" />
<glyph unicode="#" horiz-adv-x="1050" d="M39 463l22 164h172l52 352h-172l22 164h172l68 461h166l-68 -461h199l67 461h166l-67 -461h174l-23 -164h-174l-51 -352h174l-23 -164h-176l-65 -463h-166l65 463h-198l-66 -463h-166l66 463h-170zM399 627h199l51 352h-198z" />
<glyph unicode="$" horiz-adv-x="792" d="M78 459v131l192 -51v-64q0 -115 125 -115q119 0 119 115q0 34 -13 62.5t-48 74.5q-48 61 -144 157t-127 134q-94 125 -94 254q0 125 74.5 198.5t202.5 84.5v205h81v-205q131 -11 196 -88.5t65 -190.5v-76h-193v45q0 113 -113 113q-108 0 -108 -98q0 -59 69 -141 q26 -29 129 -133.5t142 -155.5q80 -114 80 -248q0 -128 -67.5 -211t-199.5 -96v-201h-81v199q-136 9 -211.5 87t-75.5 214z" />
<glyph unicode="%" horiz-adv-x="1241" d="M88 883v559q0 81 57 128.5t144 47.5q86 0 142 -47.5t56 -128.5v-559q0 -81 -56 -129.5t-142 -48.5q-87 0 -144 48.5t-57 129.5zM172 0l743 1604h150l-739 -1604h-154zM223 883q0 -29 18 -44.5t48 -15.5q65 0 65 60v557q0 59 -65 59q-30 0 -48 -15t-18 -44v-557zM752 162 v559q0 81 56.5 128.5t143.5 47.5q86 0 142.5 -47.5t56.5 -128.5v-559q0 -81 -56.5 -129.5t-142.5 -48.5q-87 0 -143.5 48.5t-56.5 129.5zM887 162q0 -29 17.5 -44.5t47.5 -15.5q31 0 48.5 15.5t17.5 44.5v557q0 59 -66 59q-30 0 -47.5 -15t-17.5 -44v-557z" />
<glyph unicode="&#x26;" horiz-adv-x="864" d="M61 287v331q0 179 121 230q-52 25 -77 77t-25 142v309q0 141 85.5 225.5t219.5 84.5q132 0 218.5 -83.5t86.5 -222.5v-53h-192v41q0 53 -27.5 81t-77.5 28q-51 0 -78.5 -29.5t-27.5 -83.5v-307q0 -67 24.5 -96t85.5 -29h424v-178h-141v-465q0 -105 72 -105q33 0 61 31 l37 -180q-57 -51 -148 -51q-107 0 -170 73q-81 -75 -202 -75q-114 0 -191.5 84t-77.5 221zM268 299q0 -52 27.5 -79t71.5 -27q65 0 102 18q-2 18 -2 53v490h-80q-65 0 -92 -30t-27 -99v-326z" />
<glyph unicode="'" horiz-adv-x="296" d="M51 1632h195l-29 -522h-137z" />
<glyph unicode="(" horiz-adv-x="575" d="M172 33v1468q0 416 381 463v-174q-80 -15 -122 -42t-63.5 -85.5t-21.5 -163.5v-1464q0 -105 21.5 -163.5t63.5 -85.5t122 -42v-174q-381 47 -381 463z" />
<glyph unicode=")" horiz-adv-x="575" d="M23 -256q80 15 121.5 42t63 85.5t21.5 163.5v1464q0 105 -21.5 163.5t-63 85.5t-121.5 42v174q380 -47 380 -463v-1468q0 -416 -380 -463v174z" />
<glyph unicode="*" horiz-adv-x="890" d="M55 1337l68 117l270 -176l-16 326h133l-16 -322l272 176l68 -117l-289 -147l291 -147l-68 -115l-270 178l16 -326h-133l16 322l-270 -178l-70 114l291 150z" />
<glyph unicode="+" horiz-adv-x="1075" d="M88 690v174h363v363h172v-363h364v-174h-364v-362h-172v362h-363z" />
<glyph unicode="," horiz-adv-x="342" d="M33 -328l18 449q2 57 31.5 91t85.5 34q60 0 91.5 -35t31.5 -88q0 -35 -27 -96l-158 -355h-73z" />
<glyph unicode="-" horiz-adv-x="614" d="M49 690v172h514v-172h-514z" />
<glyph unicode="." horiz-adv-x="342" d="M51 121q0 55 30.5 90t88.5 35q59 0 90 -35t31 -90q0 -57 -31 -93t-90 -36q-58 0 -88.5 36t-30.5 93z" />
<glyph unicode="/" horiz-adv-x="710" d="M6 -246l524 2026h175l-525 -2026h-174z" />
<glyph unicode="0" horiz-adv-x="815" d="M78 293v1018q0 147 94 234t236 87q141 0 235 -87t94 -234v-1018q0 -147 -94 -234.5t-235 -87.5q-142 0 -236 87.5t-94 234.5zM295 295q0 -54 30.5 -83.5t82.5 -29.5t82 29t30 84v1014q0 54 -30 83t-82 29t-82.5 -29t-30.5 -83v-1014z" />
<glyph unicode="1" horiz-adv-x="495" d="M25 1296v183h63q98 0 98 125h222v-1604h-222v1296h-161z" />
<glyph unicode="2" horiz-adv-x="731" d="M53 1262v53q0 149 84.5 233t235.5 84q149 0 233 -86.5t84 -267.5q0 -79 -16.5 -138t-52.5 -130q-35 -65 -137 -228t-128 -207q-42 -73 -54.5 -121.5t-12.5 -138.5v-104h401v-211h-622v315q0 170 77 318q31 61 136 220t135 216q57 109 57 217q0 74 -25 104.5t-81 30.5 q-111 0 -111 -112v-47h-203z" />
<glyph unicode="3" horiz-adv-x="776" d="M61 289v82l203 -52v-24q0 -113 117 -113q56 0 86.5 28t30.5 83v305q0 72 -27.5 103.5t-93.5 31.5h-109v187h97q64 0 90 30t26 99v241q0 65 -26 98t-84 33q-107 0 -107 -121v-38h-203v53q0 147 84.5 232t227.5 85q155 0 239 -95.5t84 -250.5v-227q0 -94 -26.5 -147 t-83.5 -78q129 -55 129 -240v-307q0 -143 -94.5 -229.5t-237.5 -86.5q-142 0 -232 86.5t-90 231.5z" />
<glyph unicode="4" horiz-adv-x="786" d="M39 508v201l158 565h190l-151 -553h202v883h203v-883h107v-213h-107v-508h-203v508h-399z" />
<glyph unicode="5" horiz-adv-x="765" d="M55 289v82l203 -52v-24q0 -55 29 -84t80 -29q50 0 79 29t29 84v641q0 52 -21.5 75t-64.5 23q-49 0 -88.5 -24.5t-62.5 -63.5l-177 60l45 598h576v-211h-391l-23 -230q86 58 191 58q103 0 168 -65.5t65 -221.5v-645q0 -144 -90 -231t-225 -87q-137 0 -229.5 87t-92.5 231z " />
<glyph unicode="6" horiz-adv-x="792" d="M78 289v1026q0 146 90 231.5t235 85.5q143 0 227.5 -85t84.5 -232v-53h-203v47q0 56 -27.5 84t-78.5 28q-111 0 -111 -112v-250q83 57 178 57q106 0 174 -75t68 -216v-536q0 -144 -92.5 -231t-229.5 -87q-135 0 -225 87t-90 231zM295 295q0 -56 28.5 -84.5t79.5 -28.5 t80 28.5t29 84.5v485q0 67 -21.5 101t-78.5 34q-66 0 -117 -51v-569z" />
<glyph unicode="7" horiz-adv-x="657" d="M39 1393v211h579v-189l-284 -1415h-232l312 1393h-375z" />
<glyph unicode="8" horiz-adv-x="782" d="M57 287v288q0 203 140 261q-121 59 -121 256v194q0 155 81 250.5t232 95.5q149 0 231 -96t82 -250v-194q0 -197 -122 -256q141 -58 141 -261v-288q0 -145 -92 -230.5t-240 -85.5t-240 85.5t-92 230.5zM258 311q0 -68 35 -101.5t96 -33.5q60 0 95.5 33.5t35.5 101.5v293 q0 68 -32 100.5t-99 32.5t-99 -32.5t-32 -100.5v-293zM274 1044q0 -70 26.5 -100.5t88.5 -30.5t88.5 30.5t26.5 100.5v252q0 131 -115 131t-115 -131v-252z" />
<glyph unicode="9" horiz-adv-x="792" d="M78 289v82l203 -52v-24q0 -56 28 -84.5t78 -28.5q111 0 111 113v303q-79 -57 -179 -57q-106 0 -173.5 74.5t-67.5 215.5v484q0 144 92 230.5t229 86.5q136 0 226 -86.5t90 -230.5v-1026q0 -146 -90.5 -232t-235.5 -86q-143 0 -227 85.5t-84 232.5zM281 877 q0 -67 21 -101.5t77 -34.5q64 0 119 52v516q0 56 -29 84t-80 28t-79.5 -28t-28.5 -84v-432z" />
<glyph unicode=":" horiz-adv-x="436" d="M98 223q0 55 30.5 90t88.5 35q59 0 90 -35t31 -90q0 -57 -31 -93t-90 -36q-58 0 -88.5 36t-30.5 93zM98 805q0 55 30.5 90t88.5 35q59 0 90 -35t31 -90q0 -57 -31 -93t-90 -36q-58 0 -88.5 36t-30.5 93z" />
<glyph unicode=";" horiz-adv-x="436" d="M80 -225l18 448q2 57 31.5 91t85.5 34q60 0 91.5 -35t31.5 -88q0 -35 -27 -96l-157 -354h-74zM98 805q0 55 30.5 90t88.5 35q59 0 90 -35t31 -90q0 -57 -31 -93t-90 -36q-58 0 -88.5 36t-30.5 93z" />
<glyph unicode="&#x3c;" horiz-adv-x="1075" d="M88 692v168l899 320v-179l-690 -225l690 -225v-178z" />
<glyph unicode="=" horiz-adv-x="1075" d="M88 485v174h899v-174h-899zM88 893v174h899v-174h-899z" />
<glyph unicode="&#x3e;" horiz-adv-x="1075" d="M88 373v178l690 225l-690 225v179l899 -320v-168z" />
<glyph unicode="?" horiz-adv-x="718" d="M47 1262v79q0 138 92.5 221t233.5 83q136 0 217.5 -81.5t81.5 -238.5q0 -89 -31 -169t-111 -218q-59 -103 -83.5 -150t-46 -105.5t-27 -106t-8.5 -130.5h-119q-15 92 -15 160q0 95 29 174t105 219q56 105 78 165t22 134t-26 106t-81 32q-54 0 -86 -28t-32 -79v-67h-193z M186 121q0 55 30.5 90t88.5 35q59 0 90 -35t31 -90q0 -57 -31 -93t-90 -36q-58 0 -88.5 36t-30.5 93z" />
<glyph unicode="@" horiz-adv-x="1392" d="M57 541q0 161 26.5 298t82.5 250t138.5 192.5t198 123t257.5 43.5q298 0 435.5 -190t137.5 -566q0 -296 -81.5 -457t-245.5 -161q-121 0 -168 84q-77 -84 -170 -84q-73 0 -121.5 53.5t-48.5 151.5v471q0 98 48 151t120 53q81 0 149 -61v49l123 39v-713q0 -33 15.5 -50 t54.5 -17q101 0 151.5 117.5t50.5 338.5q0 658 -456 658q-180 0 -309.5 -97.5t-195 -271t-65.5 -407.5q0 -571 394 -801l-64 -125q-457 265 -457 928zM625 295q0 -48 14 -71t57 -23q67 0 119 65v492q-58 67 -123 67q-39 0 -53 -22.5t-14 -69.5v-438z" />
<glyph unicode="A" d="M31 0l254 1604h219l262 -1604h-211l-31 213h-254l-28 -213h-211zM297 395h201l-103 705z" />
<glyph unicode="B" horiz-adv-x="811" d="M88 0v1604h326q148 0 232.5 -84.5t84.5 -233.5v-227q0 -94 -26.5 -147t-83.5 -78q129 -55 129 -240v-264q0 -157 -85.5 -243.5t-234.5 -86.5h-342zM303 209h109q63 0 91.5 33.5t28.5 103.5v252q0 72 -27 103.5t-93 31.5h-109v-524zM303 920h96q64 0 90.5 30.5t26.5 98.5 v211q0 68 -28.5 101.5t-92.5 33.5h-92v-475z" />
<glyph unicode="C" horiz-adv-x="763" d="M78 289v1026q0 146 90 231.5t235 85.5q143 0 227.5 -85t84.5 -232v-53h-203v47q0 56 -27.5 84t-78.5 28q-111 0 -111 -112v-1014q0 -56 28.5 -84.5t79.5 -28.5t80 28.5t29 84.5v24l203 52v-82q0 -144 -92.5 -231t-229.5 -87q-135 0 -225 87t-90 231z" />
<glyph unicode="D" horiz-adv-x="817" d="M88 0v1604h332q151 0 235 -93t84 -276v-866q0 -183 -84 -276t-235 -93h-332zM309 211h92q64 0 92.5 35t28.5 108v895q0 73 -29 108.5t-92 35.5h-92v-1182z" />
<glyph unicode="E" horiz-adv-x="671" d="M88 0v1604h530v-211h-309v-461h209v-211h-209v-510h309v-211h-530z" />
<glyph unicode="F" horiz-adv-x="675" d="M88 0v1604h553v-211h-332v-514h236v-213h-236v-666h-221z" />
<glyph unicode="G" horiz-adv-x="792" d="M78 289v1026q0 146 90 231.5t233 85.5q142 0 228 -85.5t86 -231.5v-53h-203v47q0 56 -29 84t-80 28q-53 0 -82.5 -28t-29.5 -84v-1014q0 -56 30 -84.5t82 -28.5q50 0 82.5 29t32.5 82v409h-133v201h324v-903h-136l-8 59q-81 -88 -207 -88q-122 0 -201 86.5t-79 231.5z " />
<glyph unicode="H" horiz-adv-x="837" d="M88 0v1604h221v-684h219v684h222v-1604h-222v709h-219v-709h-221z" />
<glyph unicode="I" horiz-adv-x="397" d="M88 0v1604h221v-1604h-221z" />
<glyph unicode="J" horiz-adv-x="755" d="M35 289v82l203 -52v-24q0 -113 108 -113q52 0 80.5 28.5t28.5 84.5v1309h217v-1315q0 -145 -89.5 -231.5t-230.5 -86.5t-229 86t-88 232z" />
<glyph unicode="K" horiz-adv-x="792" d="M88 0v1604h221v-564l215 564h224l-252 -650l276 -954h-229l-234 836v-836h-221z" />
<glyph unicode="L" horiz-adv-x="612" d="M88 0v1604h221v-1393h269v-211h-490z" />
<glyph unicode="M" horiz-adv-x="1083" d="M88 0v1604h238l219 -1194l231 1194h219v-1604h-194v897l-158 -897h-201l-157 897v-897h-197z" />
<glyph unicode="N" horiz-adv-x="817" d="M88 0v1604h238l215 -975v975h188v-1604h-194l-256 1065v-1065h-191z" />
<glyph unicode="O" horiz-adv-x="815" d="M78 293v1018q0 147 94 234t236 87q141 0 235 -87t94 -234v-1018q0 -147 -94 -234.5t-235 -87.5q-142 0 -236 87.5t-94 234.5zM295 295q0 -54 30.5 -83.5t82.5 -29.5t82 29t30 84v1014q0 54 -30 83t-82 29t-82.5 -29t-30.5 -83v-1014z" />
<glyph unicode="P" d="M88 0v1604h332q151 0 235 -93t84 -276v-234q0 -183 -84 -275.5t-235 -92.5h-111v-633h-221zM309 844h92q64 0 92.5 35t28.5 108v262q0 73 -29 108.5t-92 35.5h-92v-549z" />
<glyph unicode="Q" horiz-adv-x="815" d="M78 309v1002q0 147 94 234t236 87q141 0 235 -87t94 -234v-1002q0 -119 -65 -200l137 -181l-156 -114l-141 188q-58 -14 -104 -14q-142 0 -236 87t-94 234zM295 297q0 -54 30.5 -83.5t82.5 -29.5t82 29t30 84v1012q0 54 -30 83t-82 29t-82.5 -29t-30.5 -83v-1012z" />
<glyph unicode="R" horiz-adv-x="815" d="M88 0v1604h326q148 0 232.5 -84.5t84.5 -233.5v-227q0 -92 -26.5 -145t-81.5 -80q120 -51 120 -232v-602h-217v608q0 68 -24.5 96.5t-91.5 28.5h-107v-733h-215zM303 920h92q67 0 94 30.5t27 98.5v211q0 135 -121 135h-92v-475z" />
<glyph unicode="S" horiz-adv-x="757" d="M45 283v88l203 -54v-30q0 -46 32.5 -80.5t88.5 -34.5q61 0 94 40t33 114q0 104 -74 223q-24 41 -114 170t-128 192q-121 205 -121 375q0 159 89 252.5t237 93.5q143 0 226 -86t83 -227v-57h-202v41q0 59 -29 91.5t-84 32.5q-59 0 -88 -41t-29 -102q0 -95 76 -215 q20 -31 132.5 -192t152.5 -232q45 -75 63.5 -141.5t18.5 -145.5q0 -184 -80.5 -285.5t-241.5 -101.5q-154 0 -246 89.5t-92 222.5z" />
<glyph unicode="T" horiz-adv-x="618" d="M35 1393v211h549v-211h-166v-1393h-219v1393h-164z" />
<glyph unicode="U" horiz-adv-x="827" d="M84 293v1311h221v-1309q0 -55 29.5 -84t81.5 -29t82 29t30 84v1309h215v-1311q0 -147 -94 -234.5t-237 -87.5q-142 0 -235 87.5t-93 234.5z" />
<glyph unicode="V" d="M31 1604h215l151 -1092l158 1092h211l-262 -1604h-217z" />
<glyph unicode="W" horiz-adv-x="1169" d="M39 1604h209l84 -1029l145 1029h209l137 -1029l97 1029h210l-174 -1604h-219l-157 1122l-168 -1122h-211z" />
<glyph unicode="X" horiz-adv-x="823" d="M20 0l271 852l-248 752h221l148 -453l153 453h213l-260 -770l285 -834h-232l-176 532l-168 -532h-207z" />
<glyph unicode="Y" horiz-adv-x="831" d="M20 1604h222l176 -566l182 566h211l-285 -854v-750h-219v750z" />
<glyph unicode="Z" horiz-adv-x="724" d="M51 0v205l395 1188h-387v211h615v-172l-398 -1221h398v-211h-623z" />
<glyph unicode="[" horiz-adv-x="575" d="M172 -430v2394h381v-174h-207v-2046h207v-174h-381z" />
<glyph unicode="\" horiz-adv-x="696" d="M6 1780h174l525 -2026h-175z" />
<glyph unicode="]" horiz-adv-x="575" d="M23 -256h206v2046h-206v174h380v-2394h-380v174z" />
<glyph unicode="^" horiz-adv-x="915" d="M53 705l320 899h168l319 -899h-178l-225 690l-226 -690h-178z" />
<glyph unicode="_" horiz-adv-x="870" d="M0 -127h877v-139h-877v139z" />
<glyph unicode="`" horiz-adv-x="542" d="M129 1673h229l181 -323h-187z" />
<glyph unicode="a" horiz-adv-x="774" d="M49 309q0 137 57.5 235t192.5 204q94 70 190 131v45q0 69 -31 108t-91 39q-46 0 -86 -23.5t-62 -62.5l-117 143q44 65 122.5 102.5t168.5 37.5q145 0 221 -92.5t76 -247.5v-928h-131l-37 61q-97 -77 -217 -77q-110 0 -183 79t-73 246zM260 342q0 -158 111 -158 q61 0 118 54v438q-16 -10 -30.5 -21t-30.5 -23.5t-25 -19.5q-81 -65 -112 -129t-31 -141z" />
<glyph unicode="b" d="M88 0v1618l211 51v-457q85 56 178 56q108 0 180 -78.5t72 -224.5v-678q0 -146 -72 -224.5t-180 -78.5q-122 0 -213 79l-35 -63h-141zM299 242q52 -49 117 -49q57 0 79.5 35.5t22.5 105.5v584q0 70 -22.5 105.5t-79.5 35.5q-62 0 -117 -49v-768z" />
<glyph unicode="c" horiz-adv-x="745" d="M78 287v678q0 138 86 220.5t215 82.5q131 0 218 -82.5t87 -220.5v-54h-192v41q0 51 -28.5 79t-76.5 28q-47 0 -74.5 -28t-27.5 -79v-653q0 -51 27.5 -78.5t74.5 -27.5q48 0 76.5 27.5t28.5 78.5v66l192 51v-129q0 -138 -87 -220.5t-218 -82.5q-129 0 -215 82.5t-86 220.5 z" />
<glyph unicode="d" horiz-adv-x="806" d="M78 287v678q0 146 72 224.5t180 78.5q93 0 178 -56v406l211 51v-1669h-141l-35 63q-94 -79 -213 -79q-108 0 -180 78.5t-72 224.5zM289 334q0 -70 22.5 -105.5t79.5 -35.5q65 0 117 49v768q-55 49 -117 49q-57 0 -79.5 -35.5t-22.5 -105.5v-584z" />
<glyph unicode="e" horiz-adv-x="755" d="M78 287v678q0 138 86 220.5t215 82.5q47 0 90 -10.5t83.5 -35t70 -61.5t47.5 -95t18 -130q0 -116 -46 -204.5t-150 -178.5q-72 -61 -207 -152v-108q0 -51 27.5 -78t74.5 -27q49 0 77 27t28 78v72l192 51v-129q0 -138 -87 -220.5t-218 -82.5q-129 0 -215 82.5t-86 220.5z M285 606q55 39 98 82q54 51 77 106t23 126q0 153 -104 153q-45 0 -69.5 -30.5t-24.5 -86.5v-350z" />
<glyph unicode="f" horiz-adv-x="620" d="M18 1073v178h129v103q0 152 74 242t217 90q99 0 176 -44l-57 -184q-50 31 -94 31q-57 0 -86 -36.5t-29 -102.5v-99h191v-178h-191v-1073h-201v1073h-129z" />
<glyph unicode="g" horiz-adv-x="790" d="M0 -102q0 74 38 136t109 95q-24 37 -24 92q0 92 80 152q-123 83 -123 250v342q0 138 88.5 220.5t222.5 82.5q97 0 170 -43l223 10l-102 -156q20 -58 20 -114v-342q0 -138 -89 -221t-222 -83q-40 0 -65 5q-33 -38 -33 -82q0 -33 24 -53.5t70 -20.5h354l-84 -182h-346 q-47 0 -70.5 -22.5t-23.5 -55.5q0 -34 21.5 -57t62.5 -23h287l-84 -178h-248q-120 0 -188 73t-68 175zM281 625q0 -53 30 -82t80 -29q51 0 81 29t30 82v338q0 55 -29.5 82.5t-81.5 27.5q-51 0 -80.5 -27.5t-29.5 -82.5v-338z" />
<glyph unicode="h" horiz-adv-x="813" d="M88 0v1618l211 51v-455q87 54 176 54q109 0 181.5 -78t72.5 -225v-965h-211v918q0 70 -23 105.5t-81 35.5q-62 0 -115 -47v-1012h-211z" />
<glyph unicode="i" horiz-adv-x="387" d="M74 1536q0 57 30.5 92t88.5 35q59 0 89.5 -35t30.5 -92q0 -56 -30.5 -91.5t-89.5 -35.5q-58 0 -88.5 36t-30.5 91zM88 0v1251h211v-1251h-211z" />
<glyph unicode="j" horiz-adv-x="415" d="M-131 -324l55 181q42 -31 84 -31q49 0 81 34t32 95v1296h207v-1296q0 -145 -72 -237.5t-215 -92.5q-106 0 -172 51zM106 1536q0 57 30.5 92t88.5 35q59 0 90 -35t31 -92q0 -56 -31 -91.5t-90 -35.5q-58 0 -88.5 36t-30.5 91z" />
<glyph unicode="k" horiz-adv-x="768" d="M88 0v1618l211 51v-862l209 444h215l-244 -506l269 -745h-222l-227 662v-662h-211z" />
<glyph unicode="l" horiz-adv-x="387" d="M88 0v1618l211 51v-1669h-211z" />
<glyph unicode="m" horiz-adv-x="1224" d="M88 0v1251h141l33 -61q94 78 209 78q125 0 193 -99q46 46 106 72.5t121 26.5q108 0 179 -78t71 -225v-965h-211v918q0 70 -22 105.5t-79 35.5q-60 0 -110 -47q0 -7 1 -23t1 -24v-965h-213v918q0 70 -21.5 105.5t-76.5 35.5q-60 0 -111 -45v-1014h-211z" />
<glyph unicode="n" horiz-adv-x="813" d="M88 0v1251h141l35 -63q93 80 211 80q109 0 181.5 -78t72.5 -225v-965h-211v918q0 70 -23 105.5t-81 35.5q-62 0 -115 -47v-1012h-211z" />
<glyph unicode="o" horiz-adv-x="778" d="M78 287v678q0 138 88.5 220.5t222.5 82.5q133 0 222 -83t89 -220v-678q0 -137 -89 -220t-222 -83q-134 0 -222.5 82.5t-88.5 220.5zM285 299q0 -51 28 -78.5t76 -27.5q47 0 76 27.5t29 78.5v653q0 51 -29 79t-76 28q-48 0 -76 -27.5t-28 -79.5v-653z" />
<glyph unicode="p" horiz-adv-x="806" d="M88 -350v1601h141l35 -65q95 82 213 82q108 0 180 -78.5t72 -224.5v-678q0 -146 -72 -224.5t-180 -78.5q-95 0 -178 55v-389h-211zM299 242q52 -49 117 -49q57 0 79.5 35.5t22.5 105.5v584q0 70 -22.5 105.5t-79.5 35.5q-62 0 -117 -49v-768z" />
<glyph unicode="q" horiz-adv-x="806" d="M78 287v678q0 146 72 224.5t180 78.5q115 0 213 -82l35 65h141v-1601h-211v389q-83 -55 -178 -55q-108 0 -180 78.5t-72 224.5zM289 334q0 -70 22.5 -105.5t79.5 -35.5q65 0 117 49v768q-55 49 -117 49q-57 0 -79.5 -35.5t-22.5 -105.5v-584z" />
<glyph unicode="r" horiz-adv-x="626" d="M88 0v1251h141l43 -86q74 103 193 103q85 0 145 -54l-59 -188q-53 33 -107 33q-81 0 -145 -80v-979h-211z" />
<glyph unicode="s" horiz-adv-x="735" d="M49 285v131l193 -51v-64q0 -115 125 -115q118 0 118 115q0 34 -13 62.5t-48 74.5q-48 61 -143.5 157t-126.5 134q-95 127 -95 254q0 136 86.5 210.5t231.5 74.5q152 0 226.5 -79t74.5 -202v-76h-193v45q0 113 -112 113q-109 0 -109 -98q0 -58 70 -142q26 -29 128.5 -133 t141.5 -155q80 -114 80 -248q0 -140 -79 -224.5t-236 -84.5q-150 0 -235 78.5t-85 222.5z" />
<glyph unicode="t" horiz-adv-x="618" d="M18 1073v178h125v205l207 86v-291h189v-178h-189v-760q0 -61 32 -95t83 -34q42 0 84 31l55 -180q-68 -51 -172 -51q-143 0 -216 92.5t-73 236.5v760h-125z" />
<glyph unicode="u" horiz-adv-x="804" d="M84 287v964h211v-917q0 -141 102 -141q56 0 109 47v1011h211v-1251h-142l-34 61q-90 -77 -203 -77q-110 0 -182 78t-72 225z" />
<glyph unicode="v" horiz-adv-x="761" d="M33 1251h205l141 -848l151 848h201l-250 -1251h-207z" />
<glyph unicode="w" horiz-adv-x="1097" d="M39 1251h197l77 -802l138 802h192l129 -800l88 800h199l-162 -1251h-205l-147 879l-158 -879h-199z" />
<glyph unicode="x" horiz-adv-x="841" d="M20 0l277 664l-254 587h227l150 -354l160 354h217l-269 -600l293 -651h-237l-178 416l-173 -416h-213z" />
<glyph unicode="y" horiz-adv-x="804" d="M84 307v944h211v-897q0 -141 102 -141q56 0 109 47v991h211v-1601h-211v403q-76 -49 -168 -49q-110 0 -182 78t-72 225z" />
<glyph unicode="z" horiz-adv-x="700" d="M49 0v172l381 901h-373v178h594v-147l-377 -926h377v-178h-602z" />
<glyph unicode="{" horiz-adv-x="575" d="M59 680v172h74q50 0 72 24.5t22 81.5v676q0 98 19 162t61 101t100.5 52t145.5 15v-174q-94 0 -124 -29t-30 -127v-690q0 -67 -40 -116t-85 -56q44 -6 84.5 -62t40.5 -124v-686q0 -98 30 -127t124 -29v-174q-87 0 -145.5 15t-100.5 52t-61 101t-19 162v671q0 57 -22.5 83 t-71.5 26h-74z" />
<glyph unicode="|" horiz-adv-x="518" d="M172 -328v2190h174v-2190h-174z" />
<glyph unicode="}" horiz-adv-x="575" d="M23 -256q94 0 123.5 29t29.5 127v690q0 67 40 116t85 56q-44 6 -84.5 62t-40.5 124v686q0 98 -29.5 127t-123.5 29v174q87 0 145.5 -15t100 -52t60.5 -101t19 -162v-671q0 -57 22.5 -83t71.5 -26h74v-172h-74q-50 0 -72 -25t-22 -82v-675q0 -98 -19 -162t-60.5 -101 t-100 -52t-145.5 -15v174z" />
<glyph unicode="~" horiz-adv-x="1075" d="M88 584v200q86 123 246 123q98 0 221 -49q114 -43 186 -43q149 0 246 152v-201q-42 -61 -99 -93t-147 -32q-89 0 -221 47q-119 45 -186 45q-151 0 -246 -149z" />
<glyph unicode="&#xa1;" horiz-adv-x="395" d="M57 -279l68 1186h117l67 -1186h-252zM63 1233q0 57 30.5 93t90.5 36q58 0 88.5 -36t30.5 -93q0 -55 -30.5 -90t-88.5 -35q-60 0 -90.5 34.5t-30.5 90.5z" />
<glyph unicode="&#xa2;" horiz-adv-x="792" d="M92 461v678q0 126 73.5 207.5t188.5 93.5v205h80v-205q115 -12 189.5 -93.5t74.5 -207.5v-54h-192v41q0 51 -28.5 79t-76.5 28q-47 0 -74.5 -28t-27.5 -79v-653q0 -51 27.5 -78.5t74.5 -27.5q48 0 76.5 27.5t28.5 78.5v66l192 51v-129q0 -127 -74 -208t-190 -93v-201h-80 v201q-116 12 -189 93t-73 208z" />
<glyph unicode="&#xa3;" horiz-adv-x="882" d="M57 803v172h111v340q0 146 90.5 231.5t235.5 85.5q143 0 227 -85t84 -232v-53h-203v47q0 56 -27.5 84t-78.5 28q-111 0 -111 -112v-334h350v-172h-350v-592h399v-211h-708v211h92v592h-111z" />
<glyph unicode="&#xa4;" horiz-adv-x="1419" d="M41 231l256 256q-33 87 -33 179v223q0 89 33 176l-256 256l123 123l231 -234q124 115 314 115q184 0 313 -113l233 234l123 -123l-256 -256q35 -81 35 -178v-223q0 -100 -35 -181l256 -256l-123 -123l-237 236q-125 -109 -309 -109q-187 0 -310 111l-235 -235zM420 694 q0 -128 82.5 -206t206.5 -78q126 0 210.5 78t84.5 206v168q0 129 -84.5 207t-210.5 78q-124 0 -206.5 -78t-82.5 -207v-168z" />
<glyph unicode="&#xa5;" horiz-adv-x="999" d="M49 250v139h340v148h-340v139h340v74l-287 854h222l176 -566l182 566h211l-285 -854v-74h340v-139h-340v-148h340v-139h-340v-250h-219v250h-340z" />
<glyph unicode="&#xa6;" horiz-adv-x="518" d="M172 -328v961h174v-961h-174zM172 901v961h174v-961h-174z" />
<glyph unicode="&#xa7;" horiz-adv-x="784" d="M72 -82l176 -47v-27q0 -41 28 -70.5t78 -29.5q52 0 80.5 35t28.5 98q0 88 -64 195q-21 35 -99.5 148.5t-109.5 166.5q-106 177 -106 326q0 107 46 181t128 103q-108 180 -108 334q0 138 77 219.5t205 81.5q125 0 197.5 -74.5t72.5 -197.5v-51h-176v37q0 51 -25 79.5 t-71 28.5q-53 0 -78.5 -35.5t-25.5 -85.5q0 -72 51.5 -165t139.5 -214.5t122 -181.5q39 -67 55.5 -124.5t16.5 -129.5q0 -253 -166 -313q59 -99 79.5 -163t20.5 -138q0 -159 -69.5 -246.5t-208.5 -87.5q-135 0 -215 77t-80 193v78zM260 707q0 -77 66 -183q15 -23 112 -164 q90 13 90 138q0 61 -32 127.5t-131 212.5q-51 -3 -78 -39.5t-27 -91.5z" />
<glyph unicode="&#xa8;" horiz-adv-x="696" d="M51 1536q0 57 30.5 92t88.5 35q59 0 90 -35t31 -92q0 -56 -31 -91.5t-90 -35.5q-58 0 -88.5 36t-30.5 91zM408 1536q0 57 29 92t87 35q60 0 90.5 -35t30.5 -92q0 -56 -30.5 -91.5t-90.5 -35.5q-57 0 -86.5 35.5t-29.5 91.5z" />
<glyph unicode="&#xa9;" horiz-adv-x="1525" d="M84 629v340q0 151 52.5 277t143.5 210t214.5 130t265.5 46q190 0 344 -78.5t246 -231t92 -353.5v-340q0 -149 -53.5 -273.5t-145.5 -208t-216.5 -130t-266.5 -46.5t-265.5 46.5t-214.5 130t-143.5 208t-52.5 273.5zM176 629q0 -170 77.5 -300t210 -198t296.5 -68 t297.5 68t213 198t79.5 300v340q0 172 -79.5 303.5t-212.5 199.5t-298 68t-296.5 -68t-209.5 -199t-78 -304v-340zM553 494v645q0 92 57 146t148 54t143.5 -53.5t52.5 -146.5v-33h-129v31q0 69 -65 69q-70 0 -70 -69v-639q0 -36 18 -54t50 -18q67 0 67 72v14l129 33v-51 q0 -92 -57.5 -146.5t-144.5 -54.5q-86 0 -142.5 54.5t-56.5 146.5z" />
<glyph unicode="&#xaa;" horiz-adv-x="612" d="M80 1018q0 81 31 145t102 125q57 49 137 98v25q0 44 -14.5 64t-52.5 20q-49 0 -84 -49l-84 96q28 42 77.5 66t108.5 24q92 0 140 -59t48 -158v-594h-94l-20 33q-57 -45 -131 -45q-71 0 -117.5 50.5t-46.5 158.5zM227 1040q0 -92 68 -92q31 0 55 21v266q-30 -20 -51 -41 q-72 -62 -72 -154z" />
<glyph unicode="&#xab;" horiz-adv-x="800" d="M31 625l213 626h188l-215 -626l215 -625h-188zM365 625l213 626h188l-215 -626l215 -625h-188z" />
<glyph unicode="&#xac;" horiz-adv-x="1075" d="M88 700v174h897v-874h-174v700h-723z" />
<glyph unicode="&#xad;" horiz-adv-x="614" d="M49 690v172h514v-172h-514z" />
<glyph unicode="&#xae;" horiz-adv-x="1525" d="M84 629v340q0 151 52.5 277t143.5 210t214.5 130t265.5 46q190 0 344 -78.5t246 -231t92 -353.5v-340q0 -149 -53.5 -273.5t-145.5 -208t-216.5 -130t-266.5 -46.5t-265.5 46.5t-214.5 130t-143.5 208t-52.5 273.5zM176 629q0 -170 77.5 -300t210 -198t296.5 -68 t297.5 68t213 198t79.5 300v340q0 172 -79.5 303.5t-212.5 199.5t-298 68t-296.5 -68t-209.5 -199t-78 -304v-340zM559 311v1010h205q94 0 147.5 -52.5t53.5 -146.5v-143q0 -111 -68 -141q76 -36 76 -148v-379h-137v383q0 43 -16 61.5t-58 18.5h-68v-463h-135zM694 891h60 q42 0 58.5 19t16.5 63v131q0 86 -75 86h-60v-299z" />
<glyph unicode="&#xaf;" horiz-adv-x="765" d="M51 1448v158h664v-158h-664z" />
<glyph unicode="&#xb0;" horiz-adv-x="679" d="M100 1210v189q0 106 68 169.5t170 63.5q103 0 171.5 -63.5t68.5 -169.5v-189q0 -105 -68.5 -168t-171.5 -63q-102 0 -170 63t-68 168zM248 1212q0 -39 25 -63.5t67 -24.5q41 0 65.5 24.5t24.5 63.5v187q0 39 -24.5 63.5t-65.5 24.5q-42 0 -67 -24.5t-25 -63.5v-187z" />
<glyph unicode="&#xb1;" horiz-adv-x="1075" d="M88 12v174h899v-174h-899zM88 690v174h363v363h172v-363h364v-174h-364v-362h-172v362h-363z" />
<glyph unicode="&#xb2;" horiz-adv-x="514" d="M68 1415v29q0 82 50 128t142 46q195 0 195 -197q0 -73 -41 -147q-18 -30 -78.5 -116t-83.5 -124q-26 -38 -33.5 -63.5t-7.5 -75.5v-55h244v-119h-379v174q0 94 47 174q19 33 83.5 122t82.5 118q30 56 30 116q0 43 -13 58.5t-48 15.5q-34 0 -49.5 -13.5t-15.5 -45.5v-25 h-125z" />
<glyph unicode="&#xb3;" horiz-adv-x="540" d="M74 881v45l125 -29v-14q0 -60 69 -60q68 0 68 60v166q0 40 -15.5 56.5t-56.5 16.5h-65v107h57q38 0 53 15.5t15 53.5v132q0 36 -14 52.5t-50 16.5q-34 0 -47.5 -14.5t-13.5 -46.5v-23h-125v29q0 81 49.5 127.5t136.5 46.5q95 0 146 -52.5t51 -138.5v-124q0 -95 -66 -123 q78 -32 78 -131v-170q0 -80 -57 -127t-144 -47q-86 0 -140 47t-54 129z" />
<glyph unicode="&#xb4;" horiz-adv-x="542" d="M4 1350l180 323h230l-224 -323h-186z" />
<glyph unicode="&#xb6;" horiz-adv-x="950" d="M53 1368q0 106 77 171t232 65h527l-33 -156h-65v-1694h-152v1694h-205v-1694h-153v1391q-103 6 -165.5 72.5t-62.5 150.5z" />
<glyph unicode="&#xb7;" horiz-adv-x="342" d="M51 809q0 55 30.5 90t88.5 35q59 0 90 -35t31 -90q0 -57 -31 -93t-90 -36q-58 0 -88.5 36t-30.5 93z" />
<glyph unicode="&#xb8;" horiz-adv-x="378" d="M61 -430l45 389h209l-86 -389h-168z" />
<glyph unicode="&#xb9;" horiz-adv-x="387" d="M51 1425v105h35q70 0 70 74h135v-883h-135v704h-105z" />
<glyph unicode="&#xba;" horiz-adv-x="604" d="M98 1004v434q0 90 56 142t143 52t144 -52t57 -142v-434q0 -90 -57 -142.5t-144 -52.5t-143 52.5t-56 142.5zM240 1020q0 -68 57 -68q59 0 59 68v401q0 66 -59 66q-57 0 -57 -66v-401z" />
<glyph unicode="&#xbb;" horiz-adv-x="800" d="M31 0l215 625l-215 626h188l213 -626l-213 -625h-188zM365 0l215 625l-215 626h188l213 -626l-213 -625h-188z" />
<glyph unicode="&#xbc;" horiz-adv-x="1241" d="M137 0l744 1604h149l-739 -1604h-154zM141 1425v105h35q70 0 70 74h135v-883h-135v704h-105zM686 272v113l92 313h115l-84 -305h113v490h125v-490h67v-121h-67v-272h-125v272h-236z" />
<glyph unicode="&#xbd;" horiz-adv-x="1241" d="M133 0l744 1604h149l-739 -1604h-154zM137 1425v105h35q70 0 70 74h135v-883h-135v704h-105zM731 694v29q0 82 50.5 128t142.5 46q194 0 194 -197q0 -73 -41 -147q-18 -30 -78.5 -116t-83.5 -124q-26 -38 -33.5 -63.5t-7.5 -75.5v-55h244v-119h-379v174q0 94 47 174 q19 33 83.5 122t82.5 118q31 58 31 117q0 43 -13 58t-48 15q-34 0 -50 -13.5t-16 -45.5v-25h-125z" />
<glyph unicode="&#xbe;" horiz-adv-x="1241" d="M88 881v45l125 -29v-14q0 -60 70 -60q67 0 67 60v166q0 40 -15 56.5t-56 16.5h-66v107h57q38 0 53 15.5t15 53.5v132q0 36 -14 52.5t-50 16.5q-34 0 -47.5 -14.5t-13.5 -46.5v-23h-125v29q0 81 49.5 127.5t136.5 46.5q95 0 146 -52.5t51 -138.5v-124q0 -96 -65 -123 q77 -31 77 -131v-170q0 -80 -56.5 -127t-143.5 -47t-141 47t-54 129zM174 0l744 1604h149l-739 -1604h-154zM723 272v113l92 313h115l-84 -305h112v490h125v-490h68v-121h-68v-272h-125v272h-235z" />
<glyph unicode="&#xbf;" horiz-adv-x="718" d="M47 29q0 89 30.5 169.5t110.5 217.5q60 105 84 150t46 104.5t27.5 106.5t8.5 130h119q14 -85 14 -159q0 -96 -29 -176t-104 -218q-56 -105 -78 -165t-22 -134t25.5 -105.5t80.5 -31.5q54 0 86.5 28t32.5 79v67h193v-80q0 -138 -92.5 -220.5t-233.5 -82.5 q-136 0 -217.5 81.5t-81.5 238.5zM293 1233q0 57 31 93t90 36q58 0 88 -36t30 -93q0 -55 -30 -90t-88 -35q-59 0 -90 35t-31 90z" />
<glyph unicode="&#xc0;" d="M31 0l254 1604h219l262 -1604h-211l-31 213h-254l-28 -213h-211zM182 2025h230l180 -323h-186zM297 395h201l-103 705z" />
<glyph unicode="&#xc1;" d="M31 0l254 1604h219l262 -1604h-211l-31 213h-254l-28 -213h-211zM203 1702l180 323h229l-223 -323h-186zM297 395h201l-103 705z" />
<glyph unicode="&#xc2;" d="M31 0l254 1604h219l262 -1604h-211l-31 213h-254l-28 -213h-211zM88 1702l197 323h225l197 -323h-177l-133 221l-133 -221h-176zM297 395h201l-103 705z" />
<glyph unicode="&#xc3;" d="M31 0l254 1604h219l262 -1604h-211l-31 213h-254l-28 -213h-211zM49 1843q40 82 90.5 122t126.5 40q55 0 102 -23t88 -46t83 -23q41 0 71.5 21.5t57.5 72.5l82 -74q-77 -161 -211 -161q-50 0 -96.5 23.5t-91.5 47t-91 23.5q-41 0 -71.5 -21.5t-57.5 -75.5zM297 395h201 l-103 705z" />
<glyph unicode="&#xc4;" d="M31 0l254 1604h219l262 -1604h-211l-31 213h-254l-28 -213h-211zM98 1888q0 57 30.5 92t88.5 35q59 0 90 -35t31 -92q0 -56 -31 -91.5t-90 -35.5q-58 0 -88.5 36t-30.5 91zM297 395h201l-103 705zM455 1888q0 57 29 92t87 35q60 0 90.5 -35t30.5 -92q0 -56 -30.5 -91.5 t-90.5 -35.5q-57 0 -86.5 35.5t-29.5 91.5z" />
<glyph unicode="&#xc5;" d="M31 0l254 1604h219l262 -1604h-211l-31 213h-254l-28 -213h-211zM190 1843q0 78 49 130t130 52h57q83 0 131.5 -51.5t48.5 -130.5t-49 -131.5t-131 -52.5h-57q-81 0 -130 52.5t-49 131.5zM297 395h201l-103 705zM303 1841q0 -31 18.5 -49t47.5 -18h57q30 0 48 17.5 t18 49.5t-18 51t-48 19h-57q-28 0 -47 -19t-19 -51z" />
<glyph unicode="&#xc6;" horiz-adv-x="1087" d="M31 0l239 1604h764v-211h-309v-461h209v-211h-209v-510h309v-211h-530v213h-236l-26 -213h-211zM293 395h211v998h-80z" />
<glyph unicode="&#xc7;" horiz-adv-x="763" d="M78 289v1026q0 146 90 231.5t235 85.5q143 0 227.5 -85t84.5 -232v-53h-203v47q0 56 -27.5 84t-78.5 28q-111 0 -111 -112v-1014q0 -56 28.5 -84.5t79.5 -28.5t80 28.5t29 84.5v24l203 52v-82q0 -144 -92.5 -231t-229.5 -87q-135 0 -225 87t-90 231zM238 -430l45 389h209 l-86 -389h-168z" />
<glyph unicode="&#xc8;" horiz-adv-x="671" d="M88 0v1604h530v-211h-309v-461h209v-211h-209v-510h309v-211h-530zM141 2025h230l180 -323h-186z" />
<glyph unicode="&#xc9;" horiz-adv-x="671" d="M88 0v1604h530v-211h-309v-461h209v-211h-209v-510h309v-211h-530zM162 1702l180 323h229l-223 -323h-186z" />
<glyph unicode="&#xca;" horiz-adv-x="671" d="M47 1702l197 323h225l197 -323h-177l-133 221l-133 -221h-176zM88 0v1604h530v-211h-309v-461h209v-211h-209v-510h309v-211h-530z" />
<glyph unicode="&#xcb;" horiz-adv-x="671" d="M57 1888q0 57 30.5 92t88.5 35q59 0 90 -35t31 -92q0 -56 -31 -91.5t-90 -35.5q-58 0 -88.5 36t-30.5 91zM88 0v1604h530v-211h-309v-461h209v-211h-209v-510h309v-211h-530zM414 1888q0 57 29 92t87 35q60 0 90.5 -35t30.5 -92q0 -56 -30.5 -91.5t-90.5 -35.5 q-57 0 -86.5 35.5t-29.5 91.5z" />
<glyph unicode="&#xcc;" horiz-adv-x="440" d="M27 2025h229l180 -323h-186zM131 0v1604h221v-1604h-221z" />
<glyph unicode="&#xcd;" horiz-adv-x="448" d="M8 1702l180 323h230l-223 -323h-187zM88 0v1604h221v-1604h-221z" />
<glyph unicode="&#xce;" horiz-adv-x="555" d="M-33 1702l197 323h225l197 -323h-176l-134 221l-133 -221h-176zM166 0v1604h221v-1604h-221z" />
<glyph unicode="&#xcf;" horiz-adv-x="505" d="M-45 1888q0 57 30.5 92t88.5 35q59 0 90 -35t31 -92q0 -56 -31 -91.5t-90 -35.5q-58 0 -88.5 36t-30.5 91zM141 0v1604h221v-1604h-221zM311 1888q0 57 29.5 92t87.5 35q60 0 90.5 -35t30.5 -92q0 -56 -30.5 -91.5t-90.5 -35.5q-57 0 -87 35.5t-30 91.5z" />
<glyph unicode="&#xd0;" horiz-adv-x="841" d="M12 721v211h101v672h331q151 0 235.5 -93t84.5 -276v-866q0 -183 -84.5 -276t-235.5 -93h-331v721h-101zM334 211h92q64 0 92.5 35t28.5 108v895q0 73 -29 108.5t-92 35.5h-92v-461h135v-211h-135v-510z" />
<glyph unicode="&#xd1;" horiz-adv-x="817" d="M57 1843q40 82 90.5 122t126.5 40q55 0 102 -23t88 -46t83 -23q41 0 71.5 21.5t57.5 72.5l82 -74q-77 -161 -211 -161q-50 0 -96.5 23.5t-91.5 47t-91 23.5q-41 0 -71.5 -21.5t-57.5 -75.5zM88 0v1604h238l215 -975v975h188v-1604h-194l-256 1065v-1065h-191z" />
<glyph unicode="&#xd2;" horiz-adv-x="815" d="M78 293v1018q0 147 94 234t236 87q141 0 235 -87t94 -234v-1018q0 -147 -94 -234.5t-235 -87.5q-142 0 -236 87.5t-94 234.5zM193 2025h229l180 -323h-186zM295 295q0 -54 30.5 -83.5t82.5 -29.5t82 29t30 84v1014q0 54 -30 83t-82 29t-82.5 -29t-30.5 -83v-1014z" />
<glyph unicode="&#xd3;" horiz-adv-x="815" d="M78 293v1018q0 147 94 234t236 87q141 0 235 -87t94 -234v-1018q0 -147 -94 -234.5t-235 -87.5q-142 0 -236 87.5t-94 234.5zM211 1702l180 323h230l-224 -323h-186zM295 295q0 -54 30.5 -83.5t82.5 -29.5t82 29t30 84v1014q0 54 -30 83t-82 29t-82.5 -29t-30.5 -83 v-1014z" />
<glyph unicode="&#xd4;" horiz-adv-x="815" d="M78 293v1018q0 147 94 234t236 87q141 0 235 -87t94 -234v-1018q0 -147 -94 -234.5t-235 -87.5q-142 0 -236 87.5t-94 234.5zM96 1702l197 323h225l197 -323h-176l-133 221l-134 -221h-176zM295 295q0 -54 30.5 -83.5t82.5 -29.5t82 29t30 84v1014q0 54 -30 83t-82 29 t-82.5 -29t-30.5 -83v-1014z" />
<glyph unicode="&#xd5;" horiz-adv-x="815" d="M57 1843q40 82 90.5 122t126.5 40q55 0 102 -23t88 -46t83 -23q41 0 71.5 21.5t57.5 72.5l82 -74q-77 -161 -211 -161q-50 0 -96.5 23.5t-91.5 47t-91 23.5q-41 0 -71.5 -21.5t-57.5 -75.5zM78 293v1018q0 147 94 234t236 87q141 0 235 -87t94 -234v-1018 q0 -147 -94 -234.5t-235 -87.5q-142 0 -236 87.5t-94 234.5zM295 295q0 -54 30.5 -83.5t82.5 -29.5t82 29t30 84v1014q0 54 -30 83t-82 29t-82.5 -29t-30.5 -83v-1014z" />
<glyph unicode="&#xd6;" horiz-adv-x="815" d="M78 293v1018q0 147 94 234t236 87q141 0 235 -87t94 -234v-1018q0 -147 -94 -234.5t-235 -87.5q-142 0 -236 87.5t-94 234.5zM111 1888q0 57 30 92t88 35q59 0 90 -35t31 -92q0 -56 -31 -91.5t-90 -35.5q-57 0 -87.5 35.5t-30.5 91.5zM295 295q0 -54 30.5 -83.5 t82.5 -29.5t82 29t30 84v1014q0 54 -30 83t-82 29t-82.5 -29t-30.5 -83v-1014zM467 1888q0 57 29.5 92t87.5 35q60 0 90.5 -35t30.5 -92q0 -56 -30.5 -91.5t-90.5 -35.5q-57 0 -87 35.5t-30 91.5z" />
<glyph unicode="&#xd7;" horiz-adv-x="1075" d="M127 489l287 287l-287 287l123 123l287 -287l288 289l123 -123l-289 -289l289 -289l-123 -122l-288 288l-287 -286z" />
<glyph unicode="&#xd8;" horiz-adv-x="815" d="M45 -123l78 242q-45 73 -45 174v1018q0 147 94 234t236 87q106 0 188 -51l47 145h121l-76 -237q49 -77 49 -178v-1018q0 -147 -94 -234.5t-235 -87.5q-111 0 -193 54l-47 -148h-123zM295 274q6 -45 36 -68.5t77 -23.5q52 0 82 29t30 84v676zM295 649l221 688 q-7 41 -36 62.5t-72 21.5q-52 0 -82.5 -29t-30.5 -83v-660z" />
<glyph unicode="&#xd9;" horiz-adv-x="827" d="M84 293v1311h221v-1309q0 -55 29.5 -84t81.5 -29t82 29t30 84v1309h215v-1311q0 -147 -94 -234.5t-237 -87.5q-142 0 -235 87.5t-93 234.5zM199 2025h229l180 -323h-186z" />
<glyph unicode="&#xda;" horiz-adv-x="827" d="M84 293v1311h221v-1309q0 -55 29.5 -84t81.5 -29t82 29t30 84v1309h215v-1311q0 -147 -94 -234.5t-237 -87.5q-142 0 -235 87.5t-93 234.5zM215 1702l180 323h230l-224 -323h-186z" />
<glyph unicode="&#xdb;" horiz-adv-x="827" d="M84 293v1311h221v-1309q0 -55 29.5 -84t81.5 -29t82 29t30 84v1309h215v-1311q0 -147 -94 -234.5t-237 -87.5q-142 0 -235 87.5t-93 234.5zM102 1702l197 323h225l197 -323h-176l-133 221l-133 -221h-177z" />
<glyph unicode="&#xdc;" horiz-adv-x="827" d="M84 293v1311h221v-1309q0 -55 29.5 -84t81.5 -29t82 29t30 84v1309h215v-1311q0 -147 -94 -234.5t-237 -87.5q-142 0 -235 87.5t-93 234.5zM115 1888q0 57 30 92t88 35q59 0 90 -35t31 -92q0 -56 -31 -91.5t-90 -35.5q-57 0 -87.5 35.5t-30.5 91.5zM471 1888 q0 57 29.5 92t87.5 35q60 0 90.5 -35t30.5 -92q0 -56 -30.5 -91.5t-90.5 -35.5q-57 0 -87 35.5t-30 91.5z" />
<glyph unicode="&#xdd;" horiz-adv-x="831" d="M20 1604h222l176 -566l182 566h211l-285 -854v-750h-219v750zM219 1702l180 323h230l-223 -323h-187z" />
<glyph unicode="&#xde;" horiz-adv-x="813" d="M88 0v1604h221v-271h111q151 0 235 -92.5t84 -275.5v-310q0 -183 -84 -275.5t-235 -92.5h-111v-287h-221zM309 500h92q64 0 92.5 35t28.5 108v336q0 73 -28.5 108t-92.5 35h-92v-622z" />
<glyph unicode="&#xdf;" horiz-adv-x="901" d="M88 0v1346q0 158 76.5 249t238.5 91q81 0 140 -24t91.5 -68t47 -97t14.5 -119v-299q0 -129 -32 -186q82 -24 122.5 -86t40.5 -178v-310q0 -70 -17.5 -129.5t-52.5 -106t-93 -73t-134 -26.5q-120 0 -200 73l59 179q42 -52 107 -52q57 0 91 36t34 99v302q0 92 -36.5 122.5 t-138.5 30.5h-59v166h19q60 0 78 27.5t18 95.5v301q0 113 -105 113q-108 0 -108 -117v-1360h-201z" />
<glyph unicode="&#xe0;" horiz-adv-x="774" d="M49 309q0 137 57.5 235t192.5 204q94 70 190 131v45q0 69 -31 108t-91 39q-46 0 -86 -23.5t-62 -62.5l-117 143q44 65 122.5 102.5t168.5 37.5q145 0 221 -92.5t76 -247.5v-928h-131l-37 61q-97 -77 -217 -77q-110 0 -183 79t-73 246zM172 1673h229l181 -323h-187z M260 342q0 -158 111 -158q61 0 118 54v438q-16 -10 -30.5 -21t-30.5 -23.5t-25 -19.5q-81 -65 -112 -129t-31 -141z" />
<glyph unicode="&#xe1;" horiz-adv-x="774" d="M49 309q0 137 57.5 235t192.5 204q94 70 190 131v45q0 69 -31 108t-91 39q-46 0 -86 -23.5t-62 -62.5l-117 143q44 65 122.5 102.5t168.5 37.5q145 0 221 -92.5t76 -247.5v-928h-131l-37 61q-97 -77 -217 -77q-110 0 -183 79t-73 246zM190 1350l181 323h229l-223 -323 h-187zM260 342q0 -158 111 -158q61 0 118 54v438q-16 -10 -30.5 -21t-30.5 -23.5t-25 -19.5q-81 -65 -112 -129t-31 -141z" />
<glyph unicode="&#xe2;" horiz-adv-x="774" d="M49 309q0 137 57.5 235t192.5 204q94 70 190 131v45q0 69 -31 108t-91 39q-46 0 -86 -23.5t-62 -62.5l-117 143q44 65 122.5 102.5t168.5 37.5q145 0 221 -92.5t76 -247.5v-928h-131l-37 61q-97 -77 -217 -77q-110 0 -183 79t-73 246zM76 1350l196 323h226l196 -323h-176 l-133 221l-133 -221h-176zM260 342q0 -158 111 -158q61 0 118 54v438q-16 -10 -30.5 -21t-30.5 -23.5t-25 -19.5q-81 -65 -112 -129t-31 -141z" />
<glyph unicode="&#xe3;" horiz-adv-x="774" d="M37 1491q40 82 90.5 122t126.5 40q44 0 83.5 -14.5t63.5 -31.5t57.5 -31.5t67.5 -14.5q41 0 71.5 21.5t57.5 72.5l82 -74q-78 -162 -211 -162q-50 0 -96 23.5t-91 47t-91 23.5q-42 0 -72 -21.5t-57 -74.5zM49 309q0 137 57.5 235t192.5 204q94 70 190 131v45 q0 69 -31 108t-91 39q-46 0 -86 -23.5t-62 -62.5l-117 143q44 65 122.5 102.5t168.5 37.5q145 0 221 -92.5t76 -247.5v-928h-131l-37 61q-97 -77 -217 -77q-110 0 -183 79t-73 246zM260 342q0 -158 111 -158q61 0 118 54v438q-16 -10 -30.5 -21t-30.5 -23.5t-25 -19.5 q-81 -65 -112 -129t-31 -141z" />
<glyph unicode="&#xe4;" horiz-adv-x="774" d="M49 309q0 137 57.5 235t192.5 204q94 70 190 131v45q0 69 -31 108t-91 39q-46 0 -86 -23.5t-62 -62.5l-117 143q44 65 122.5 102.5t168.5 37.5q145 0 221 -92.5t76 -247.5v-928h-131l-37 61q-97 -77 -217 -77q-110 0 -183 79t-73 246zM90 1536q0 57 30.5 92t88.5 35 q59 0 90 -35t31 -92q0 -56 -31 -91.5t-90 -35.5q-58 0 -88.5 36t-30.5 91zM260 342q0 -158 111 -158q61 0 118 54v438q-16 -10 -30.5 -21t-30.5 -23.5t-25 -19.5q-81 -65 -112 -129t-31 -141zM446 1536q0 57 29.5 92t87.5 35q60 0 90.5 -35t30.5 -92q0 -56 -30.5 -91.5 t-90.5 -35.5q-57 0 -87 35.5t-30 91.5z" />
<glyph unicode="&#xe5;" horiz-adv-x="774" d="M49 309q0 137 57.5 235t192.5 204q94 70 190 131v45q0 69 -31 108t-91 39q-46 0 -86 -23.5t-62 -62.5l-117 143q44 65 122.5 102.5t168.5 37.5q145 0 221 -92.5t76 -247.5v-928h-131l-37 61q-97 -77 -217 -77q-110 0 -183 79t-73 246zM178 1491q0 79 48.5 130.5 t129.5 51.5h58q83 0 131.5 -51.5t48.5 -130.5t-49 -131.5t-131 -52.5h-58q-81 0 -129.5 52.5t-48.5 131.5zM260 342q0 -158 111 -158q61 0 118 54v438q-16 -10 -30.5 -21t-30.5 -23.5t-25 -19.5q-81 -65 -112 -129t-31 -141zM291 1489q0 -31 18.5 -49.5t46.5 -18.5h58 q30 0 47.5 18t17.5 50t-18 51t-47 19h-58q-28 0 -46.5 -19t-18.5 -51z" />
<glyph unicode="&#xe6;" horiz-adv-x="1161" d="M49 311q0 74 17 134.5t47.5 111t88.5 105t122.5 102.5t167.5 117l-3 43q-7 147 -122 147q-46 0 -86 -23.5t-62 -62.5l-117 143q44 65 122.5 102.5t168.5 37.5q124 0 197 -70q79 70 196 70q59 0 111 -17.5t97.5 -54.5t72.5 -105t27 -159q0 -104 -41 -188t-125 -161.5 t-238 -181.5v-118q3 -46 30.5 -70.5t72.5 -24.5q48 0 76 27t28 78v72l193 51v-129q0 -138 -87.5 -220.5t-218.5 -82.5q-150 0 -235 102q-46 -47 -110.5 -74.5t-131.5 -27.5q-53 0 -98.5 18t-82 55.5t-57 102.5t-20.5 151zM260 342q0 -158 109 -158q64 0 123 52v440 q-134 -88 -183 -164t-49 -170zM690 606q109 76 154 147.5t45 166.5q0 153 -105 153q-45 0 -69.5 -30.5t-24.5 -86.5v-350z" />
<glyph unicode="&#xe7;" horiz-adv-x="745" d="M78 287v678q0 138 86 220.5t215 82.5q131 0 218 -82.5t87 -220.5v-54h-192v41q0 51 -28.5 79t-76.5 28q-47 0 -74.5 -28t-27.5 -79v-653q0 -51 27.5 -78.5t74.5 -27.5q48 0 76.5 27.5t28.5 78.5v66l192 51v-129q0 -138 -87 -220.5t-218 -82.5q-129 0 -215 82.5t-86 220.5 zM225 -430l45 389h209l-86 -389h-168z" />
<glyph unicode="&#xe8;" horiz-adv-x="755" d="M78 287v678q0 138 86 220.5t215 82.5q47 0 90 -10.5t83.5 -35t70 -61.5t47.5 -95t18 -130q0 -116 -46 -204.5t-150 -178.5q-72 -61 -207 -152v-108q0 -51 27.5 -78t74.5 -27q49 0 77 27t28 78v72l192 51v-129q0 -138 -87 -220.5t-218 -82.5q-129 0 -215 82.5t-86 220.5z M164 1673h229l180 -323h-186zM285 606q55 39 98 82q54 51 77 106t23 126q0 153 -104 153q-45 0 -69.5 -30.5t-24.5 -86.5v-350z" />
<glyph unicode="&#xe9;" horiz-adv-x="755" d="M78 287v678q0 138 86 220.5t215 82.5q47 0 90 -10.5t83.5 -35t70 -61.5t47.5 -95t18 -130q0 -116 -46 -204.5t-150 -178.5q-72 -61 -207 -152v-108q0 -51 27.5 -78t74.5 -27q49 0 77 27t28 78v72l192 51v-129q0 -138 -87 -220.5t-218 -82.5q-129 0 -215 82.5t-86 220.5z M182 1350l180 323h230l-223 -323h-187zM285 606q55 39 98 82q54 51 77 106t23 126q0 153 -104 153q-45 0 -69.5 -30.5t-24.5 -86.5v-350z" />
<glyph unicode="&#xea;" horiz-adv-x="755" d="M68 1350l196 323h225l197 -323h-176l-133 221l-133 -221h-176zM78 287v678q0 138 86 220.5t215 82.5q47 0 90 -10.5t83.5 -35t70 -61.5t47.5 -95t18 -130q0 -116 -46 -204.5t-150 -178.5q-72 -61 -207 -152v-108q0 -51 27.5 -78t74.5 -27q49 0 77 27t28 78v72l192 51 v-129q0 -138 -87 -220.5t-218 -82.5q-129 0 -215 82.5t-86 220.5zM285 606q55 39 98 82q54 51 77 106t23 126q0 153 -104 153q-45 0 -69.5 -30.5t-24.5 -86.5v-350z" />
<glyph unicode="&#xeb;" horiz-adv-x="755" d="M78 287v678q0 138 86 220.5t215 82.5q47 0 90 -10.5t83.5 -35t70 -61.5t47.5 -95t18 -130q0 -116 -46 -204.5t-150 -178.5q-72 -61 -207 -152v-108q0 -51 27.5 -78t74.5 -27q49 0 77 27t28 78v72l192 51v-129q0 -138 -87 -220.5t-218 -82.5q-129 0 -215 82.5t-86 220.5z M80 1536q0 57 30.5 92t88.5 35q59 0 89.5 -35t30.5 -92q0 -56 -30.5 -91.5t-89.5 -35.5q-58 0 -88.5 36t-30.5 91zM285 606q55 39 98 82q54 51 77 106t23 126q0 153 -104 153q-45 0 -69.5 -30.5t-24.5 -86.5v-350zM436 1536q0 57 29.5 92t87.5 35q60 0 90.5 -35t30.5 -92 q0 -56 -30.5 -91.5t-90.5 -35.5q-57 0 -87 35.5t-30 91.5z" />
<glyph unicode="&#xec;" horiz-adv-x="425" d="M20 1673h230l180 -323h-186zM127 0v1251h211v-1251h-211z" />
<glyph unicode="&#xed;" horiz-adv-x="436" d="M4 1350l180 323h230l-224 -323h-186zM88 0v1251h211v-1251h-211z" />
<glyph unicode="&#xee;" horiz-adv-x="573" d="M-23 1350l197 323h225l197 -323h-176l-133 221l-133 -221h-177zM180 0v1251h211v-1251h-211z" />
<glyph unicode="&#xef;" horiz-adv-x="569" d="M-12 1536q0 57 30 92t88 35q59 0 90 -35t31 -92q0 -56 -31 -91.5t-90 -35.5q-57 0 -87.5 35.5t-30.5 91.5zM180 0v1251h211v-1251h-211zM344 1536q0 57 29.5 92t87.5 35q60 0 90.5 -35t30.5 -92q0 -56 -30.5 -91.5t-90.5 -35.5q-57 0 -87 35.5t-30 91.5z" />
<glyph unicode="&#xf0;" horiz-adv-x="759" d="M80 295v442q0 138 67.5 211.5t169.5 73.5q100 0 187 -70v389q0 36 -6 60l-222 -260l-65 59l238 281q-27 18 -68 18q-47 0 -87 -27t-65 -69l-116 143q44 65 122 102.5t168 37.5q104 0 175 -52l90 107l67 -60l-94 -110q59 -89 59 -225v-1051q0 -141 -87.5 -226t-219.5 -85 q-134 0 -223.5 85t-89.5 226zM276 301q0 -52 32.5 -80t80.5 -28q50 0 82.5 28t32.5 80v457q-58 67 -129 67q-54 0 -76.5 -34.5t-22.5 -98.5v-391z" />
<glyph unicode="&#xf1;" horiz-adv-x="813" d="M55 1491q40 82 90.5 122t126.5 40q55 0 102 -23t88 -46t83 -23q41 0 71.5 21.5t57.5 72.5l82 -74q-78 -162 -211 -162q-50 0 -96.5 23.5t-91.5 47t-91 23.5q-42 0 -72 -21.5t-57 -74.5zM88 0v1251h141l35 -63q93 80 211 80q109 0 181.5 -78t72.5 -225v-965h-211v918 q0 70 -23 105.5t-81 35.5q-62 0 -115 -47v-1012h-211z" />
<glyph unicode="&#xf2;" horiz-adv-x="778" d="M78 287v678q0 138 88.5 220.5t222.5 82.5q133 0 222 -83t89 -220v-678q0 -137 -89 -220t-222 -83q-134 0 -222.5 82.5t-88.5 220.5zM174 1673h229l181 -323h-187zM285 299q0 -51 28 -78.5t76 -27.5q47 0 76 27.5t29 78.5v653q0 51 -29 79t-76 28q-48 0 -76 -27.5 t-28 -79.5v-653z" />
<glyph unicode="&#xf3;" horiz-adv-x="778" d="M78 287v678q0 138 88.5 220.5t222.5 82.5q133 0 222 -83t89 -220v-678q0 -137 -89 -220t-222 -83q-134 0 -222.5 82.5t-88.5 220.5zM190 1350l181 323h229l-223 -323h-187zM285 299q0 -51 28 -78.5t76 -27.5q47 0 76 27.5t29 78.5v653q0 51 -29 79t-76 28 q-48 0 -76 -27.5t-28 -79.5v-653z" />
<glyph unicode="&#xf4;" horiz-adv-x="778" d="M78 287v678q0 138 88.5 220.5t222.5 82.5q133 0 222 -83t89 -220v-678q0 -137 -89 -220t-222 -83q-134 0 -222.5 82.5t-88.5 220.5zM78 1350l196 323h226l196 -323h-176l-133 221l-133 -221h-176zM285 299q0 -51 28 -78.5t76 -27.5q47 0 76 27.5t29 78.5v653q0 51 -29 79 t-76 28q-48 0 -76 -27.5t-28 -79.5v-653z" />
<glyph unicode="&#xf5;" horiz-adv-x="778" d="M39 1491q40 82 90.5 122t126.5 40q44 0 83.5 -14.5t63.5 -31.5t57.5 -31.5t67.5 -14.5q41 0 71.5 21.5t57.5 72.5l82 -74q-78 -162 -211 -162q-50 0 -96 23.5t-91 47t-91 23.5q-42 0 -72 -21.5t-57 -74.5zM78 287v678q0 138 88.5 220.5t222.5 82.5q133 0 222 -83t89 -220 v-678q0 -137 -89 -220t-222 -83q-134 0 -222.5 82.5t-88.5 220.5zM285 299q0 -51 28 -78.5t76 -27.5q47 0 76 27.5t29 78.5v653q0 51 -29 79t-76 28q-48 0 -76 -27.5t-28 -79.5v-653z" />
<glyph unicode="&#xf6;" horiz-adv-x="778" d="M78 287v678q0 138 88.5 220.5t222.5 82.5q133 0 222 -83t89 -220v-678q0 -137 -89 -220t-222 -83q-134 0 -222.5 82.5t-88.5 220.5zM92 1536q0 57 30.5 92t88.5 35q59 0 90 -35t31 -92q0 -56 -31 -91.5t-90 -35.5q-58 0 -88.5 36t-30.5 91zM285 299q0 -51 28 -78.5 t76 -27.5q47 0 76 27.5t29 78.5v653q0 51 -29 79t-76 28q-48 0 -76 -27.5t-28 -79.5v-653zM449 1536q0 57 29 92t87 35q60 0 90.5 -35t30.5 -92q0 -56 -30.5 -91.5t-90.5 -35.5q-57 0 -86.5 35.5t-29.5 91.5z" />
<glyph unicode="&#xf7;" horiz-adv-x="1075" d="M88 690v174h899v-174h-899zM418 348q0 55 30.5 90t88.5 35q59 0 89.5 -35t30.5 -90q0 -57 -30.5 -93t-89.5 -36q-58 0 -88.5 36t-30.5 93zM418 1208q0 55 30.5 90t88.5 35q59 0 89.5 -35t30.5 -90q0 -57 -30.5 -93t-89.5 -36q-58 0 -88.5 36t-30.5 93z" />
<glyph unicode="&#xf8;" horiz-adv-x="778" d="M78 287v678q0 138 88.5 220.5t222.5 82.5q70 0 131 -25l41 131h111l-60 -192q88 -82 88 -217v-678q0 -137 -89 -220t-222 -83q-73 0 -135 24l-41 -131h-113l60 195q-82 82 -82 215zM285 475l172 561q-26 23 -68 23q-48 0 -76 -27.5t-28 -79.5v-477zM317 215 q25 -22 72 -22t76 27.5t29 78.5v492z" />
<glyph unicode="&#xf9;" horiz-adv-x="804" d="M84 287v964h211v-917q0 -141 102 -141q56 0 109 47v1011h211v-1251h-142l-34 61q-90 -77 -203 -77q-110 0 -182 78t-72 225zM188 1673h230l180 -323h-186z" />
<glyph unicode="&#xfa;" horiz-adv-x="804" d="M84 287v964h211v-917q0 -141 102 -141q56 0 109 47v1011h211v-1251h-142l-34 61q-90 -77 -203 -77q-110 0 -182 78t-72 225zM207 1350l180 323h229l-223 -323h-186z" />
<glyph unicode="&#xfb;" horiz-adv-x="804" d="M84 287v964h211v-917q0 -141 102 -141q56 0 109 47v1011h211v-1251h-142l-34 61q-90 -77 -203 -77q-110 0 -182 78t-72 225zM92 1350l197 323h225l197 -323h-176l-134 221l-133 -221h-176z" />
<glyph unicode="&#xfc;" horiz-adv-x="804" d="M84 287v964h211v-917q0 -141 102 -141q56 0 109 47v1011h211v-1251h-142l-34 61q-90 -77 -203 -77q-110 0 -182 78t-72 225zM102 1536q0 57 30.5 92t88.5 35q59 0 90 -35t31 -92q0 -56 -31 -91.5t-90 -35.5q-58 0 -88.5 36t-30.5 91zM459 1536q0 57 29 92t87 35 q60 0 90.5 -35t30.5 -92q0 -56 -30.5 -91.5t-90.5 -35.5q-57 0 -86.5 35.5t-29.5 91.5z" />
<glyph unicode="&#xfd;" horiz-adv-x="804" d="M84 307v944h211v-897q0 -141 102 -141q56 0 109 47v991h211v-1601h-211v403q-76 -49 -168 -49q-110 0 -182 78t-72 225zM207 1350l180 323h229l-223 -323h-186z" />
<glyph unicode="&#xfe;" d="M88 -350v1968l211 51v-457q85 56 178 56q108 0 180 -78.5t72 -224.5v-678q0 -146 -72 -224.5t-180 -78.5q-95 0 -178 55v-389h-211zM299 242q52 -49 117 -49q57 0 79.5 35.5t22.5 105.5v584q0 70 -22.5 105.5t-79.5 35.5q-62 0 -117 -49v-768z" />
<glyph unicode="&#xff;" horiz-adv-x="804" d="M84 307v944h211v-897q0 -141 102 -141q56 0 109 47v991h211v-1601h-211v403q-76 -49 -168 -49q-110 0 -182 78t-72 225zM104 1536q0 57 30.5 92t88.5 35q59 0 90 -35t31 -92q0 -56 -31 -91.5t-90 -35.5q-58 0 -88.5 36t-30.5 91zM461 1536q0 57 29.5 92t87.5 35 q60 0 90 -35t30 -92q0 -56 -30 -91.5t-90 -35.5q-57 0 -87 35.5t-30 91.5z" />
<glyph unicode="&#x152;" horiz-adv-x="1103" d="M78 293v1018q0 147 94 234t236 87q76 0 143 -28h500v-211h-310v-461h209v-211h-209v-510h310v-211h-500q-69 -29 -143 -29q-142 0 -236 87.5t-94 234.5zM295 295q0 -54 30.5 -83.5t82.5 -29.5t82 29t30 84v1014q0 54 -30 83t-82 29t-82.5 -29t-30.5 -83v-1014z" />
<glyph unicode="&#x153;" horiz-adv-x="1171" d="M78 287v678q0 138 88.5 220.5t222.5 82.5q119 0 205 -70q82 70 201 70q47 0 90 -10.5t83.5 -35t70 -61.5t47.5 -95t18 -130q0 -115 -46.5 -203.5t-150.5 -179.5q-72 -61 -207 -152v-114q0 -48 28.5 -73.5t74.5 -25.5q48 0 76 27t28 78v72l193 51v-129q0 -138 -87 -220.5 t-218 -82.5q-118 0 -201 67q-86 -67 -205 -67q-134 0 -222.5 82.5t-88.5 220.5zM285 299q0 -51 28 -78.5t76 -27.5q47 0 76 27.5t29 78.5v653q0 51 -29 79t-76 28q-48 0 -76 -27.5t-28 -79.5v-653zM700 606q58 41 99 82q54 51 77 106t23 126q0 153 -104 153 q-46 0 -70.5 -30.5t-24.5 -86.5v-350z" />
<glyph unicode="&#x178;" horiz-adv-x="831" d="M20 1604h222l176 -566l182 566h211l-285 -854v-750h-219v750zM119 1888q0 57 30.5 92t88.5 35q59 0 89.5 -35t30.5 -92q0 -56 -30.5 -91.5t-89.5 -35.5q-58 0 -88.5 36t-30.5 91zM475 1888q0 57 29.5 92t87.5 35q60 0 90.5 -35t30.5 -92q0 -56 -30.5 -91.5t-90.5 -35.5 q-57 0 -87 35.5t-30 91.5z" />
<glyph unicode="&#x2c6;" horiz-adv-x="739" d="M59 1350l197 323h225l197 -323h-176l-133 221l-133 -221h-177z" />
<glyph unicode="&#x2dc;" horiz-adv-x="802" d="M51 1491q40 82 90.5 122t126.5 40q55 0 102 -23t88 -46t83 -23q41 0 71.5 21.5t57.5 72.5l82 -74q-78 -162 -211 -162q-50 0 -96.5 23.5t-91.5 47t-91 23.5q-42 0 -72 -21.5t-57 -74.5z" />
<glyph unicode="&#x2000;" horiz-adv-x="1012" />
<glyph unicode="&#x2001;" horiz-adv-x="2025" />
<glyph unicode="&#x2002;" horiz-adv-x="1012" />
<glyph unicode="&#x2003;" horiz-adv-x="2025" />
<glyph unicode="&#x2004;" horiz-adv-x="675" />
<glyph unicode="&#x2005;" horiz-adv-x="506" />
<glyph unicode="&#x2006;" horiz-adv-x="337" />
<glyph unicode="&#x2007;" horiz-adv-x="337" />
<glyph unicode="&#x2008;" horiz-adv-x="253" />
<glyph unicode="&#x2009;" horiz-adv-x="405" />
<glyph unicode="&#x200a;" horiz-adv-x="112" />
<glyph unicode="&#x2010;" horiz-adv-x="614" d="M49 690v172h514v-172h-514z" />
<glyph unicode="&#x2011;" horiz-adv-x="614" d="M49 690v172h514v-172h-514z" />
<glyph unicode="&#x2012;" horiz-adv-x="614" d="M49 690v172h514v-172h-514z" />
<glyph unicode="&#x2013;" horiz-adv-x="886" d="M49 690v172h787v-172h-787z" />
<glyph unicode="&#x2014;" horiz-adv-x="1333" d="M49 690v172h1233v-172h-1233z" />
<glyph unicode="&#x2018;" horiz-adv-x="342" d="M49 1182q0 40 25 94l159 356h74l-18 -448q-2 -57 -31.5 -91t-87.5 -34q-59 0 -90 35t-31 88z" />
<glyph unicode="&#x2019;" horiz-adv-x="342" d="M33 1067l18 449q2 57 31.5 90.5t85.5 33.5q60 0 91.5 -34.5t31.5 -87.5q0 -36 -27 -97l-158 -354h-73z" />
<glyph unicode="&#x201a;" horiz-adv-x="342" d="M33 -328l18 449q2 57 31.5 91t85.5 34q60 0 91.5 -35t31.5 -88q0 -35 -27 -96l-158 -355h-73z" />
<glyph unicode="&#x201c;" horiz-adv-x="667" d="M49 1182q0 40 25 94l159 356h74l-18 -448q-2 -57 -31.5 -91t-87.5 -34q-59 0 -90 35t-31 88zM375 1182q0 42 24 94l160 356h74l-19 -448q-2 -57 -31 -91t-87 -34q-59 0 -90 35t-31 88z" />
<glyph unicode="&#x201d;" horiz-adv-x="667" d="M33 1067l18 449q2 57 31.5 90.5t85.5 33.5q60 0 91.5 -34.5t31.5 -87.5q0 -36 -27 -97l-158 -354h-73zM358 1067l19 449q2 57 31.5 90.5t85.5 33.5q60 0 91 -34.5t31 -87.5q0 -38 -26 -97l-158 -354h-74z" />
<glyph unicode="&#x201e;" horiz-adv-x="667" d="M33 -328l18 449q2 57 31.5 91t85.5 34q60 0 91.5 -35t31.5 -88q0 -35 -27 -96l-158 -355h-73zM358 -328l19 449q2 57 31.5 91t85.5 34q60 0 91 -35t31 -88q0 -37 -26 -96l-158 -355h-74z" />
<glyph unicode="&#x2022;" horiz-adv-x="628" d="M72 788q0 103 70.5 175.5t174.5 72.5q102 0 175 -73t73 -175q0 -101 -73 -173t-175 -72q-104 0 -174.5 71.5t-70.5 173.5z" />
<glyph unicode="&#x2026;" horiz-adv-x="1339" d="M94 121q0 55 30.5 90t88.5 35q59 0 90 -35t31 -90q0 -57 -31 -93t-90 -36q-58 0 -88.5 36t-30.5 93zM551 121q0 55 30.5 90t88.5 35q59 0 90 -35t31 -90q0 -57 -31 -93t-90 -36q-58 0 -88.5 36t-30.5 93zM1008 121q0 55 30 90t88 35q59 0 90 -35t31 -90q0 -57 -31 -93 t-90 -36q-58 0 -88 36t-30 93z" />
<glyph unicode="&#x202f;" horiz-adv-x="405" />
<glyph unicode="&#x2039;" horiz-adv-x="464" d="M31 625l213 626h188l-215 -626l215 -625h-188z" />
<glyph unicode="&#x203a;" horiz-adv-x="464" d="M31 0l215 625l-215 626h188l213 -626l-213 -625h-188z" />
<glyph unicode="&#x205f;" horiz-adv-x="506" />
<glyph unicode="&#x20ac;" horiz-adv-x="849" d="M37 616l39 121h76v160h-115l39 121h76v297q0 146 90 231.5t235 85.5q143 0 227 -85t84 -232v-53h-202v47q0 56 -28 84t-79 28q-110 0 -110 -112v-291h403l-43 -121h-360v-160h305l-43 -121h-262v-321q0 -56 28.5 -84.5t79.5 -28.5t80 28.5t29 84.5v24l202 52v-82 q0 -144 -92 -231t-229 -87q-135 0 -225 87t-90 231v327h-115z" />
<glyph unicode="&#x2122;" horiz-adv-x="1091" d="M47 1477v127h330v-127h-101v-836h-131v836h-98zM461 641v963h141l131 -719l139 719h134v-963h-117v541l-96 -541h-119l-96 541v-541h-117z" />
<glyph unicode="&#x25fc;" horiz-adv-x="1249" d="M0 0v1249h1249v-1249h-1249z" />
</font>
</defs>
</svg>
