<svg xmlns="http://www.w3.org/2000/svg" width="23.702" height="19.684" viewBox="0 0 23.702 19.684">
  <path id="Path_168" data-name="Path 168" d="M22.367,11.7l.039-.01H6.547l4.986,5a1.289,1.289,0,0,1,.376.92,1.309,1.309,0,0,1-.376.92l-.776.776a1.3,1.3,0,0,1-1.831,0L.376,10.762a1.314,1.314,0,0,1,0-1.84L8.922.376A1.278,1.278,0,0,1,9.837,0a1.3,1.3,0,0,1,.915.376l.776.776a1.278,1.278,0,0,1,.376.915,1.265,1.265,0,0,1-.376.9L6.489,7.992h15.9A1.345,1.345,0,0,1,23.7,9.322v1.1A1.318,1.318,0,0,1,22.367,11.7Z" fill="#fff"/>
</svg>
