<svg xmlns="http://www.w3.org/2000/svg" width="23.702" height="19.684" viewBox="0 0 23.702 19.684">
  <g id="Group_343" data-name="Group 343" transform="translate(23.702 19.684) rotate(180)">
    <path id="Path_168" data-name="Path 168" d="M22.367,7.982l.039.01H6.547l4.986-5a1.289,1.289,0,0,0,.376-.92,1.309,1.309,0,0,0-.376-.92L10.757.381a1.3,1.3,0,0,0-1.831,0L.376,8.922a1.314,1.314,0,0,0,0,1.84l8.546,8.546a1.278,1.278,0,0,0,.915.376,1.3,1.3,0,0,0,.915-.376l.776-.776a1.278,1.278,0,0,0,.376-.915,1.265,1.265,0,0,0-.376-.9L6.489,11.692h15.9a1.345,1.345,0,0,0,1.315-1.33v-1.1A1.318,1.318,0,0,0,22.367,7.982Z" fill="#fff"/>
  </g>
</svg>
