<svg xmlns="http://www.w3.org/2000/svg" width="111.111" height="100" viewBox="0 0 111.111 100">
  <g id="error-404_1_" data-name="error-404 (1)" transform="translate(0 -25.6)">
    <g id="Group_2283" data-name="Group 2283" transform="translate(0 25.6)">
      <g id="Group_2282" data-name="Group 2282" transform="translate(0 0)">
        <path id="Path_905" data-name="Path 905" d="M110.115,114.1,62.607,29.609A7.961,7.961,0,0,0,55.724,25.6h-.013a7.875,7.875,0,0,0-6.859,4.013L1,114.08a7.784,7.784,0,0,0-1,3.794v0A7.732,7.732,0,0,0,7.722,125.6h95.667a7.731,7.731,0,0,0,7.722-7.719A7.63,7.63,0,0,0,110.115,114.1Zm-6.726,7.8H7.722A4.023,4.023,0,0,1,3.7,117.88a4.07,4.07,0,0,1,.518-1.978l47.855-84.47A4.3,4.3,0,0,1,55.717,29.3a4.247,4.247,0,0,1,3.669,2.13l47.507,84.493a3.936,3.936,0,0,1,.515,1.952A4.024,4.024,0,0,1,103.389,121.9Z" transform="translate(0 -25.6)" fill="#a3b2be"/>
      </g>
    </g>
    <path id="Exclusion_1" data-name="Exclusion 1" d="M6326.405-2373.775v-3.705h-5.556a1.852,1.852,0,0,1-1.443-.69,1.858,1.858,0,0,1-.361-1.562l3.7-16.668,3.613.8-3.2,14.413h3.243v-5.555h3.705v5.555h1.853v3.7h-1.853v3.705Z" transform="translate(-6287.518 2482.709)" fill="#a3b2be"/>
    <g id="Group_2289" data-name="Group 2289" transform="translate(48.148 86.711)">
      <g id="Group_2288" data-name="Group 2288">
        <path id="Path_907" data-name="Path 907" d="M229.274,307.2a7.415,7.415,0,0,0-7.407,7.407v7.407a7.407,7.407,0,1,0,14.815,0v-7.407A7.415,7.415,0,0,0,229.274,307.2Zm3.7,14.815a3.7,3.7,0,0,1-7.408,0v-7.407a3.7,3.7,0,1,1,7.408,0Z" transform="translate(-221.867 -307.2)" fill="#a3b2be"/>
      </g>
    </g>
    <path id="Union_2" data-name="Union 2" d="M6326.408-2373.777v-3.7h-5.557a1.857,1.857,0,0,1-1.445-.693,1.857,1.857,0,0,1-.362-1.561l3.7-16.667,3.617.8-3.2,14.413h3.247v-5.555h3.7v5.555h1.853v3.7h-1.853v3.7Z" transform="translate(-6252.333 2482.709)" fill="#a3b2be"/>
    <g id="Group_2295" data-name="Group 2295" transform="translate(53.704 51.526)">
      <g id="Group_2294" data-name="Group 2294" transform="translate(0 0)">
        <rect id="Rectangle_2243" data-name="Rectangle 2243" width="3.704" height="18.518" fill="#a3b2be"/>
      </g>
    </g>
    <g id="Group_2297" data-name="Group 2297" transform="translate(53.704 73.748)">
      <g id="Group_2296" data-name="Group 2296" transform="translate(0 0)">
        <rect id="Rectangle_2244" data-name="Rectangle 2244" width="3.704" height="3.704" fill="#a3b2be"/>
      </g>
    </g>
  </g>
</svg>
